<?xml version="1.0" encoding="UTF-8" standalone="no"?><!DOCTYPE svg PUBLIC "-//W3C//DTD SVG 1.1//EN" "http://www.w3.org/Graphics/SVG/1.1/DTD/svg11.dtd"><svg width="100%" height="100%" viewBox="0 0 209 51" version="1.1" xmlns="http://www.w3.org/2000/svg" xmlns:xlink="http://www.w3.org/1999/xlink" xml:space="preserve" xmlns:serif="http://www.serif.com/" style="fill-rule:evenodd;clip-rule:evenodd;stroke-linejoin:round;stroke-miterlimit:2;"><path d="M191.954,19.021c-2.229,-4.575 -7.708,-6.671 -14.737,-7.183c-1.05,-0.009 -2.075,-0.021 -3.121,-0.034c-3.1,0.388 -4.871,1.704 -4.913,5.304c4.346,2.079 4.171,6.025 2.534,11.213c-0.263,1.304 -0.505,2.612 -0.742,3.917c-0.675,0.579 -1.333,1.158 -1.987,1.737c-1.025,2.983 3.187,3.721 6.375,3.425c1.483,-0.137 3.625,-1.021 4.562,-1.913c0.392,-0.383 0.329,-1.504 0.479,-2.029c1.025,-0.775 3.254,-0.587 4.475,-1.041c2.708,-1 5.196,-2.6 6.813,-4.9c1.791,-2.555 1.421,-6.096 0.262,-8.496Zm-6.354,6.212c-1.792,2.375 -4.542,3.888 -7.379,5.009c-0.109,-0.009 -0.196,-0.017 -0.304,-0.029c-0.109,-4.255 3.712,-12.959 -0.021,-14.338c-0.263,-1.267 2.337,-0.775 3.516,-1.046c1.442,0.379 2.775,0.629 3.692,1.438c2.113,1.866 2.504,6.266 0.496,8.966Z" style="fill:#fff;fill-rule:nonzero;"/><path d="M122.192,8.058c0.937,0.079 1.771,0.142 2.075,0.742c0.808,1.55 0.329,3.975 0.525,5.938c0.154,1.845 0.304,3.691 0.479,5.537c0.216,0.817 0.437,1.633 0.654,2.446c1.004,-0.654 1.396,-2.067 1.967,-3.254c1.616,-3.4 2.971,-7.4 5.829,-9.363c0.917,-0.633 3.996,-1.462 5.175,-0.104c-0.35,1.817 -1.529,3.763 -2.359,5.208c-1.833,4.084 -3.691,8.171 -5.525,12.259c-0.591,1.808 -1.179,3.616 -1.745,5.421c-0.438,1.312 -0.329,2.841 -1.05,3.729c-1.55,0.266 -3.45,0.346 -4.629,1.029c-1.725,-2.692 -1.725,-6.358 -2.905,-9.571c-0.545,-1.242 -1.07,-2.483 -1.595,-3.721c-0.875,0.342 -1.113,2.233 -1.55,3.129c-0.7,1.434 -3.059,8.013 -3.93,8.575c-0.762,0.492 -1.658,0.346 -2.75,0.475c-1.004,0.121 -1.941,-0.016 -2.575,-0.546c-0.37,-2.37 -0.283,-4.912 -0.741,-7.15c-1.113,-5.591 -3.404,-13.229 -1.025,-20.079c1.004,-0.191 3.233,-0.837 4.562,-0.158c2.317,1.625 1.071,10.158 2.6,12.971c0.067,-0.021 0.109,-0.042 0.175,-0.067c1.217,-5.017 4.254,-11.8 8.338,-13.446Z" style="fill:#fff;fill-rule:nonzero;"/><path d="M163.7,14.317c-0.763,0.066 -1.508,0.133 -2.25,0.2c-3.363,0.887 -6.571,4.175 -7.554,7.862c-0.042,0.021 -0.109,0.042 -0.154,0.067c-0.088,-5.775 -5.68,-10.304 -12.359,-8.088c-4.675,1.55 -5.962,6.463 -7.775,11.505c-0.654,1.804 -1.508,4.895 -0.85,7.012c2.488,7.975 13.538,3.292 16.834,-0.438c1.179,-1.329 1.791,-3.279 3.033,-4.591c0.042,-0.05 0.067,-0.1 0.088,-0.15c-0,2.35 -0.13,5.667 1.333,6.804c0.808,0.638 2.446,0.983 3.821,0.892c4.933,-0.334 7.008,-0.846 9.65,-3.854c4.391,-5.026 4.696,-16.588 -3.817,-17.221Zm-16.812,10.079c-0.742,2.862 -3.255,10.396 -6.834,8.958c-1.658,-0.658 -1.158,-3.642 -0.633,-5.55c1.462,-5.487 2.467,-7.521 6.158,-10.291c1.242,0.516 1.875,4.666 1.309,6.883Zm13.775,7.175c-0.371,-0.034 -0.742,-0.067 -1.113,-0.096c-0.85,-0.529 -1.421,-2.238 -0.875,-3.658c1.133,-2.934 2.554,-6.434 4.063,-9.121c0.829,0.341 0.808,1.221 1.112,2.008c1.354,3.579 -1.025,9.371 -3.187,10.867Z" style="fill:#fff;fill-rule:nonzero;"/><path d="M97.8,13.729c1.308,0.1 2.6,0.35 3.079,1.146c1.246,2.075 -1.025,11.958 -1.683,14.746c-0.479,2.071 0.35,3.837 0.304,5.6c-0.983,0.508 -5.35,1.512 -6.179,0.654c-0.808,-0.825 -0.588,-2.396 -1.05,-3.517c-0.85,-2.062 -2.117,-4.996 -4.017,-6.162c-0.241,1.121 -0.5,2.237 -0.762,3.358c-0.392,4.117 0.654,6.163 -3.8,6.196c-0.917,0.008 -1.813,0.096 -2.446,-0.371c-0.283,-5.833 0.042,-13.662 2.404,-18.187c0.742,-1.446 1.092,-3.321 2.925,-3.488c3.033,-0.275 4.521,1.65 5.108,3.554c0.459,1.509 0.021,3.788 1.942,4.075c0.088,-0.021 0.175,-0.037 0.242,-0.058c1.462,-0.996 0.437,-4.075 1.221,-5.788c0.595,-1.245 1.487,-1.254 2.712,-1.758Z" style="fill:#fff;fill-rule:nonzero;"/><path d="M80.9,15.754c-1.375,-0.437 -3.362,-0.633 -4.608,-1.041c-1.463,2.737 -2.184,7.17 -2.575,11.162c-1.159,-0.229 -2.029,-1.012 -2.971,-1.454c-0.983,-0.35 -1.967,-0.7 -2.925,-1.054c-0.067,-0.005 -0.108,-0.009 -0.175,-0.013c0.329,-1.85 4.696,-4.158 3.558,-5.9c-2.466,-3.771 -12.512,-4.658 -16.596,-2.487c-0.875,0.466 -2.25,0.646 -2.621,1.683c-0.329,0.912 0.721,1.971 0.876,2.862c0.129,0.863 -0.175,1.801 -0.305,2.601c-0.041,-0.005 -0.066,-0.005 -0.087,-0.009c-1.529,-1.5 -1.113,-4.246 -3.275,-5.304c-10.459,-5.129 -15.546,3.958 -16.267,13.946c-0.937,-0.583 -1.396,-1.775 -2.096,-2.571c-5.066,-5.737 -1.179,-6.817 2.817,-10.187c1.05,-0.905 3.821,-3.175 2.379,-5.525c-1.246,-2.038 -4.892,-1.296 -7.775,-2.034c-6.421,-1.637 -15.221,0.404 -17.796,4.017l-0.087,0.95c0.591,1.246 4.758,0.567 6.158,0.617c0.021,0.029 0.042,0.058 0.067,0.087c-2.425,4.917 -2.621,13.233 -1.967,18.942c1.596,0.654 3.754,1.429 5.088,0.046c0.612,-2.167 0.654,-5.113 0.72,-7.421c0.155,-2.242 0.305,-4.488 0.438,-6.734c0.196,-1.975 0.392,-3.945 0.592,-5.92c-0.109,-0.517 -0.505,-0.9 -0.567,-1.563c1.354,-1.871 7.163,-1.8 9.346,-0.221c0.041,3.925 -4.413,5.384 -6.9,6.725c-0.788,0.488 -1.571,0.979 -2.359,1.467c0,1.329 0.938,2.617 1.442,3.629c1.571,3.225 4.804,9.308 8.146,10.746c1.596,0.692 2.863,-0.846 4.346,-0.496c3.166,0.754 5.566,2.025 8.866,0.696c2.117,-0.854 4.105,-2.279 5.526,-3.975c0.829,-1.004 1.2,-3.075 2.25,-3.867c0.962,2.204 -0.546,6.879 0.283,9.425c0.962,0.429 4.846,-0.291 6.266,-0.566c3.821,-0.746 6.813,-2.03 9.871,-3.675c1.704,-0.942 3.409,-1.88 5.109,-2.817c0.066,0.033 0.154,0.067 0.216,0.1c-0.195,2.083 -0.458,4.617 0.875,5.492c1.2,0.787 3.842,0.695 4.5,-0.246c0.675,-0.996 0.525,-2.434 0.963,-3.738c0.925,-2.975 2.212,-13.871 1.254,-16.375Zm-37.075,14.996c-0.654,0.767 -1.854,2.288 -3.254,1.783c-2.271,-1.033 -0.7,-9.845 0.546,-11.658c0.437,-0.654 1.025,-0.962 1.704,-1.362c5.937,0.454 3.187,8.675 1.004,11.237Zm15.217,-8.308c0.329,-3.017 1.025,-3.317 -0.567,-5.304c1.158,-1.5 4.958,-0.805 6.113,0.375c0.458,3.016 -2.967,5.083 -5.546,4.929Zm7.121,6.916c-1.921,1.98 -5.263,3.28 -8.08,4.15c-0.458,-0.554 -0.391,-1.108 -0.545,-1.958c-0.505,-2.775 1.462,-4.721 3.47,-5.112c0.788,0.041 1.596,0.087 2.38,0.129c0.72,-0.259 1.42,-0.513 2.141,-0.767c0.35,0.058 0.675,0.113 1.025,0.171c1.354,0.854 0.35,2.633 -0.391,3.387Z" style="fill:#fff;fill-rule:nonzero;"/></svg>